<svg width="32" height="32" viewBox="0 0 32 32" fill="none" xmlns="http://www.w3.org/2000/svg">
<path d="M0 26.9091C0 28.2593 0.421427 29.5542 1.17157 30.5089C1.92172 31.4636 2.93913 32 4 32H28C29.0609 32 30.0783 31.4636 30.8284 30.5089C31.5786 29.5542 32 28.2593 32 26.9091V12.9091H0V26.9091ZM4.71429 20C4.71429 19.2767 4.94005 18.583 5.34191 18.0715C5.74378 17.5601 6.28882 17.2727 6.85714 17.2727H10.2857C10.854 17.2727 11.3991 17.5601 11.8009 18.0715C12.2028 18.583 12.4286 19.2767 12.4286 20V21.8182C12.4286 22.5415 12.2028 23.2352 11.8009 23.7467C11.3991 24.2581 10.854 24.5455 10.2857 24.5455H6.85714C6.28882 24.5455 5.74378 24.2581 5.34191 23.7467C4.94005 23.2352 4.71429 22.5415 4.71429 21.8182V20ZM28 0H4C2.93913 0 1.92172 0.536362 1.17157 1.49109C0.421427 2.44582 0 3.74072 0 5.09091V7.45455H32V5.09091C32 3.74072 31.5786 2.44582 30.8284 1.49109C30.0783 0.536362 29.0609 0 28 0Z" fill="#C89B3C"/>
</svg>
