<svg width="30" height="30" viewBox="0 0 30 30" fill="none" xmlns="http://www.w3.org/2000/svg">
<path d="M3.75119 16.2491H5.00119V24.9991C5.00119 26.3741 6.12619 27.4991 7.50119 27.4991H22.5012C23.8762 27.4991 25.0012 26.3741 25.0012 24.9991V16.2491H26.2512C26.7512 16.2491 27.2137 15.9492 27.4012 15.4741C27.5887 15.0117 27.4887 14.4741 27.1262 14.1116L15.8887 2.86165C15.773 2.74577 15.6357 2.65383 15.4845 2.59111C15.3333 2.52838 15.1712 2.49609 15.0074 2.49609C14.8437 2.49609 14.6816 2.52838 14.5304 2.59111C14.3792 2.65383 14.2418 2.74577 14.1262 2.86165L2.86369 14.1116C2.50119 14.4741 2.40119 15.0117 2.58869 15.4741C2.77619 15.9367 3.23869 16.2491 3.73869 16.2491H3.75119ZM15.0012 5.51165L22.5012 13.0117V24.9991H7.50119V13.0117L15.0012 5.51165Z" fill="#BFB7B7"/>
</svg>
