<svg width="26" height="28" viewBox="0 0 26 28" fill="none" xmlns="http://www.w3.org/2000/svg">
<path d="M16.9 14.316C18.6239 14.316 20.2772 14.9444 21.4962 16.0631C22.7152 17.1817 23.4 18.6989 23.4 20.2809V21.4739C23.4 22.1067 23.1261 22.7136 22.6385 23.1611C22.1509 23.6085 21.4896 23.8599 20.8 23.8599H2.6C1.91044 23.8599 1.24912 23.6085 0.761522 23.1611C0.273928 22.7136 0 22.1067 0 21.4739V20.2809C0 18.6989 0.684819 17.1817 1.90381 16.0631C3.12279 14.9444 4.77609 14.316 6.5 14.316H16.9ZM22.1 7.15798C22.4448 7.15798 22.7754 7.28367 23.0192 7.5074C23.263 7.73113 23.4 8.03457 23.4 8.35097V9.54397H24.7C25.0448 9.54397 25.3754 9.66966 25.6192 9.89339C25.863 10.1171 26 10.4206 26 10.737C26 11.0534 25.863 11.3568 25.6192 11.5805C25.3754 11.8043 25.0448 11.93 24.7 11.93H23.4V13.123C23.4 13.4394 23.263 13.7428 23.0192 13.9665C22.7754 14.1903 22.4448 14.316 22.1 14.316C21.7552 14.316 21.4246 14.1903 21.1808 13.9665C20.937 13.7428 20.8 13.4394 20.8 13.123V11.93H19.5C19.1552 11.93 18.8246 11.8043 18.5808 11.5805C18.337 11.3568 18.2 11.0534 18.2 10.737C18.2 10.4206 18.337 10.1171 18.5808 9.89339C18.8246 9.66966 19.1552 9.54397 19.5 9.54397H20.8V8.35097C20.8 8.03457 20.937 7.73113 21.1808 7.5074C21.4246 7.28367 21.7552 7.15798 22.1 7.15798ZM11.7 0C13.4239 0 15.0772 0.628451 16.2962 1.7471C17.5152 2.86575 18.2 4.38297 18.2 5.96498C18.2 7.54699 17.5152 9.06421 16.2962 10.1829C15.0772 11.3015 13.4239 11.93 11.7 11.93C9.97609 11.93 8.32279 11.3015 7.10381 10.1829C5.88482 9.06421 5.2 7.54699 5.2 5.96498C5.2 4.38297 5.88482 2.86575 7.10381 1.7471C8.32279 0.628451 9.97609 0 11.7 0Z" fill="white"/>
</svg>
