<svg width="16" height="16" viewBox="0 0 16 16" fill="none" xmlns="http://www.w3.org/2000/svg">
<path d="M8.00105 3.19922C6.9843 3.19927 6.00169 3.56606 5.2336 4.23226C4.46552 4.89846 3.9635 5.81936 3.81972 6.82589L3.80905 6.90055C3.72791 7.46134 3.76071 8.03274 3.9055 8.58055C4.05029 9.12837 4.30409 9.64136 4.65172 10.0888C5.06025 10.6168 5.33439 11.1214 5.33439 11.627V13.3326C5.33439 13.474 5.39058 13.6097 5.4906 13.7097C5.59062 13.8097 5.72627 13.8659 5.86772 13.8659H10.1344C10.2758 13.8659 10.4115 13.8097 10.5115 13.7097C10.6115 13.6097 10.6677 13.474 10.6677 13.3326V11.627C10.6677 11.1214 10.9408 10.6168 11.3504 10.0888C12.0224 9.22055 12.3616 8.08882 12.1931 6.89949L12.1824 6.82482C12.0384 5.81848 11.5363 4.89784 10.7682 4.23186C10.0001 3.56588 9.01764 3.19923 8.00105 3.19922ZM6.40105 15.9992H9.60105V14.9326H6.40105V15.9992Z" fill="#C89B3C"/>
</svg>
