<svg width="32" height="32" viewBox="0 0 32 32" fill="none" xmlns="http://www.w3.org/2000/svg">
<path d="M9.8217 0.00124729C8.53716 -0.0133358 7.26251 0.227944 6.07154 0.711115C4.88058 1.19429 3.79697 1.90974 2.88349 2.81606C1.97 3.72238 1.24478 4.80154 0.749817 5.99106C0.254859 7.18057 0 8.4568 0 9.74584C0 11.0349 0.254859 12.3111 0.749817 13.5006C1.24478 14.6901 1.97 15.7693 2.88349 16.6756C3.79697 17.5819 4.88058 18.2974 6.07154 18.7806C7.26251 19.2637 8.53716 19.505 9.8217 19.4904C12.3974 19.4904 14.8677 18.4637 16.689 16.6361C18.5103 14.8085 19.5335 12.3298 19.5335 9.74521C19.5335 7.16062 18.5103 4.68189 16.689 2.85431C14.8677 1.02672 12.3974 0.00124735 9.8217 0.00124729ZM6.71412 3.39018C7.13784 3.38952 7.55753 3.47281 7.94912 3.63525C8.3407 3.7977 8.69647 4.03611 8.99604 4.33682C9.2956 4.63753 9.53306 4.99462 9.6948 5.38761C9.85653 5.7806 9.93937 6.20176 9.93855 6.62695C9.9397 7.05216 9.85708 7.47341 9.69544 7.86649C9.53381 8.25956 9.29634 8.61669 8.9967 8.91737C8.69705 9.21804 8.34114 9.45633 7.94941 9.61852C7.55769 9.78071 7.13788 9.86361 6.71412 9.86246C6.29036 9.86361 5.87055 9.78071 5.47882 9.61852C5.0871 9.45633 4.73118 9.21804 4.43154 8.91737C4.13189 8.61669 3.89443 8.25956 3.73279 7.86649C3.57115 7.47341 3.48854 7.05216 3.48968 6.62695C3.48903 6.20187 3.57198 5.78084 3.7338 5.38799C3.89561 4.99514 4.13309 4.6382 4.43264 4.33762C4.73219 4.03705 5.0879 3.79875 5.47941 3.63638C5.87091 3.47401 6.29049 3.38952 6.71412 3.39018ZM20.5043 14.2655C20.1636 15.0656 19.7332 15.8243 19.2215 16.5268L28.9334 26.2708C29.1376 26.4785 29.2521 26.7586 29.2521 27.0504C29.2521 27.3421 29.1376 27.6222 28.9334 27.8299C28.7264 28.0348 28.4473 28.1497 28.1565 28.1497C27.8657 28.1497 27.5866 28.0348 27.3796 27.8299L17.7846 18.1633C16.5728 19.315 15.1291 20.1929 13.5508 20.7377V22.4528C13.5508 23.0016 14.012 23.4656 14.5614 23.4656H17.2799V26.1947C17.2799 26.7435 17.7411 27.2075 18.2905 27.2075H21.009V29.9366C21.009 30.4854 21.4714 30.9494 22.0196 30.9494H24.7767L25.4765 31.6517C25.9016 32.077 30.1602 32.2903 31.2255 31.2226C32.2908 30.1524 32.0758 25.8791 31.6519 25.4538L20.5043 14.2655Z" fill="#C89B3C"/>
</svg>
