<svg width="32" height="30" viewBox="0 0 32 30" fill="none" xmlns="http://www.w3.org/2000/svg">
<path d="M16.0019 28.9991C22.5441 28.9991 27.8476 23.4676 27.8476 16.6441C27.8476 9.82059 22.5441 4.28906 16.0019 4.28906C9.45974 4.28906 4.15625 9.82059 4.15625 16.6441C4.15625 23.4676 9.45974 28.9991 16.0019 28.9991Z" stroke="#BFB7B7" stroke-width="2"/>
<path d="M5.78734 1C4.63933 1.32068 3.59251 1.95097 2.75214 2.82748C1.91177 3.70399 1.30746 4.79582 1 5.99319M26.2127 1C27.3607 1.32068 28.4075 1.95097 29.2479 2.82748C30.0882 3.70399 30.6925 4.79582 31 5.99319M16 9.58497V16.2037C16 16.4473 16.1895 16.645 16.4231 16.645H21.0767" stroke="#BFB7B7" stroke-width="2" stroke-linecap="round"/>
</svg>
