<svg width="34" height="35" viewBox="0 0 34 35" fill="none" xmlns="http://www.w3.org/2000/svg">
<path opacity="0.987" fill-rule="evenodd" clip-rule="evenodd" d="M14.8986 0.151875C16.7111 -0.050625 17.7836 -0.050625 19.7311 0.151875C23.1784 0.662113 26.3741 2.25559 28.8561 4.70188C27.1789 6.28721 25.5237 7.8957 23.8911 9.52687C20.7644 6.87687 17.2744 6.26521 13.4211 7.69187C10.5944 8.99187 8.62609 11.0985 7.51609 14.0119C5.70219 12.6615 3.91192 11.2796 2.14609 9.86687C2.02338 9.80228 1.88321 9.77863 1.74609 9.79937C4.55109 4.39104 8.93443 1.17437 14.8961 0.149375" fill="#F44336"/>
<path opacity="0.997" fill-rule="evenodd" clip-rule="evenodd" d="M1.74063 9.79948C1.8823 9.77781 2.01646 9.80031 2.14313 9.86698C3.90896 11.2797 5.69923 12.6616 7.51313 14.012C7.22769 15.1471 7.04776 16.3062 6.97563 17.4745C7.0373 18.6045 7.21646 19.7136 7.51313 20.802L1.87563 25.2895C-0.57937 20.1595 -0.62437 14.9961 1.74063 9.79948Z" fill="#FFC107"/>
<path opacity="0.999" fill-rule="evenodd" clip-rule="evenodd" d="M28.5872 30.7244C26.8318 29.1763 24.9942 27.7242 23.0822 26.3744C24.9989 25.021 26.1622 23.1644 26.5722 20.8044H17.1797V14.2819C22.5964 14.2369 28.0105 14.2827 33.4222 14.4194C34.4489 19.9944 33.263 25.021 29.8647 29.4994C29.4606 29.9289 29.0326 30.3378 28.5872 30.7244Z" fill="#448AFF"/>
<path opacity="0.993" fill-rule="evenodd" clip-rule="evenodd" d="M7.5125 20.8042C9.5625 25.8992 13.3208 28.2775 18.7875 27.9392C20.3221 27.7616 21.7934 27.2255 23.0825 26.3742C24.9958 27.7275 26.8308 29.1775 28.5875 30.7242C25.8041 33.2253 22.2553 34.7094 18.52 34.9342C17.6714 35.002 16.8186 35.002 15.97 34.9342C9.60667 34.1842 4.90833 30.9692 1.875 25.2892L7.5125 20.8042Z" fill="#43A047"/>
</svg>
