<svg width="100" height="100" viewBox="0 0 100 100" fill="none" xmlns="http://www.w3.org/2000/svg">
<g clip-path="url(#clip0_1087_1069)">
<path d="M93.6875 38.7589C92.0045 37 90.2634 35.1875 89.6071 33.5938C89 32.1339 88.9643 29.7143 88.9286 27.3705C88.8616 23.0134 88.7902 18.0759 85.3571 14.6429C81.9241 11.2098 76.9866 11.1384 72.6295 11.0714C70.2857 11.0357 67.8661 11 66.4062 10.3929C64.817 9.73661 63 7.99554 61.2411 6.3125C58.1607 3.35268 54.6607 0 50 0C45.3393 0 41.8438 3.35268 38.7589 6.3125C37 7.99554 35.1875 9.73661 33.5938 10.3929C32.1429 11 29.7143 11.0357 27.3705 11.0714C23.0134 11.1384 18.0759 11.2098 14.6429 14.6429C11.2098 18.0759 11.1607 23.0134 11.0714 27.3705C11.0357 29.7143 11 32.1339 10.3929 33.5938C9.73661 35.183 7.99554 37 6.3125 38.7589C3.35268 41.8393 0 45.3393 0 50C0 54.6607 3.35268 58.1562 6.3125 61.2411C7.99554 63 9.73661 64.8125 10.3929 66.4062C11 67.8661 11.0357 70.2857 11.0714 72.6295C11.1384 76.9866 11.2098 81.9241 14.6429 85.3571C18.0759 88.7902 23.0134 88.8616 27.3705 88.9286C29.7143 88.9643 32.1339 89 33.5938 89.6071C35.183 90.2634 37 92.0045 38.7589 93.6875C41.8393 96.6473 45.3393 100 50 100C54.6607 100 58.1562 96.6473 61.2411 93.6875C63 92.0045 64.8125 90.2634 66.4062 89.6071C67.8661 89 70.2857 88.9643 72.6295 88.9286C76.9866 88.8616 81.9241 88.7902 85.3571 85.3571C88.7902 81.9241 88.8616 76.9866 88.9286 72.6295C88.9643 70.2857 89 67.8661 89.6071 66.4062C90.2634 64.817 92.0045 63 93.6875 61.2411C96.6473 58.1607 100 54.6607 100 50C100 45.3393 96.6473 41.8438 93.6875 38.7589ZM70.3839 41.8125L45.3839 66.8125C45.0522 67.1446 44.6584 67.408 44.2248 67.5877C43.7912 67.7674 43.3265 67.86 42.8571 67.86C42.3878 67.86 41.9231 67.7674 41.4895 67.5877C41.0559 67.408 40.662 67.1446 40.3304 66.8125L29.6161 56.0982C29.2842 55.7664 29.021 55.3725 28.8415 54.9389C28.6619 54.5054 28.5694 54.0407 28.5694 53.5714C28.5694 53.1022 28.6619 52.6375 28.8415 52.2039C29.021 51.7704 29.2842 51.3765 29.6161 51.0446C30.2862 50.3745 31.1951 49.998 32.1429 49.998C32.6121 49.998 33.0768 50.0905 33.5103 50.27C33.9439 50.4496 34.3378 50.7128 34.6696 51.0446L42.8571 59.2366L65.3304 36.7589C65.6622 36.4271 66.0561 36.1639 66.4897 35.9843C66.9232 35.8047 67.3879 35.7123 67.8571 35.7123C68.3264 35.7123 68.7911 35.8047 69.2246 35.9843C69.6582 36.1639 70.0521 36.4271 70.3839 36.7589C70.7158 37.0908 70.979 37.4847 71.1585 37.9182C71.3381 38.3518 71.4306 38.8164 71.4306 39.2857C71.4306 39.755 71.3381 40.2197 71.1585 40.6532C70.979 41.0868 70.7158 41.4807 70.3839 41.8125Z" fill="#00B158"/>
</g>
<defs>
<clipPath id="clip0_1087_1069">
<rect width="100" height="100" rx="50" fill="white"/>
</clipPath>
</defs>
</svg>
