<svg width="32" height="32" viewBox="0 0 32 32" fill="none" xmlns="http://www.w3.org/2000/svg">
<path d="M13.2444 17.7333L15.5556 20.0444C15.8815 20.3704 16.2963 20.5333 16.8 20.5333C17.3037 20.5333 17.7185 20.3704 18.0444 20.0444L23.1111 14.9778V16.0444C23.1111 16.5481 23.2818 16.963 23.6231 17.2889C23.9644 17.6148 24.3864 17.7778 24.8889 17.7778C25.3914 17.7778 25.8139 17.6077 26.1564 17.2676C26.499 16.9274 26.669 16.5049 26.6667 16V10.6667C26.6667 10.163 26.496 9.74104 26.1547 9.40089C25.8133 9.06074 25.3914 8.89007 24.8889 8.88889H19.5111C19.0074 8.88889 18.5926 9.05956 18.2667 9.40089C17.9407 9.74222 17.7778 10.1641 17.7778 10.6667C17.7778 11.1692 17.9484 11.5917 18.2898 11.9342C18.6311 12.2767 19.053 12.4468 19.5556 12.4444H20.5778L16.8 16.2667L14.4889 13.9556C14.163 13.6 13.7481 13.4222 13.2444 13.4222C12.7407 13.4222 12.3259 13.6 12 13.9556L6.57778 19.3778C6.22222 19.7037 6.04444 20.1185 6.04444 20.6222C6.04444 21.1259 6.22222 21.5407 6.57778 21.8667C6.9037 22.2222 7.31852 22.4 7.82222 22.4C8.32592 22.4 8.74074 22.2222 9.06667 21.8667L13.2444 17.7333ZM3.55556 32C2.57778 32 1.74104 31.6521 1.04533 30.9564C0.34963 30.2607 0.00118519 29.4234 0 28.4444V3.55556C0 2.57778 0.348445 1.74104 1.04533 1.04533C1.74222 0.34963 2.57896 0.00118519 3.55556 0H28.4444C29.4222 0 30.2596 0.348445 30.9564 1.04533C31.6533 1.74222 32.0012 2.57896 32 3.55556V28.4444C32 29.4222 31.6521 30.2596 30.9564 30.9564C30.2607 31.6533 29.4234 32.0012 28.4444 32H3.55556Z" fill="#C89B3C"/>
</svg>
