<svg width="34" height="34" viewBox="0 0 34 34" fill="none" xmlns="http://www.w3.org/2000/svg">
<path d="M32.6394 21.1851L29.3077 18.1981V14.2412C29.3039 11.5067 28.1693 8.87061 26.1232 6.84265C24.0772 4.81469 21.2651 3.53892 18.2308 3.26203V1H15.7692V3.26203C12.7349 3.53892 9.92278 4.81469 7.87676 6.84265C5.83074 8.87061 4.69612 11.5067 4.69231 14.2412V18.1981L1.36062 21.1851C1.12979 21.392 1.00007 21.6726 1 21.9652V25.2755C1 25.5681 1.12967 25.8488 1.36048 26.0557C1.5913 26.2627 1.90435 26.3789 2.23077 26.3789H10.8462V27.2363C10.8188 28.6363 11.369 29.996 12.3911 31.0547C13.4132 32.1134 14.8353 32.7965 16.3846 32.973C17.2402 33.0491 18.1041 32.9638 18.9207 32.7226C19.7373 32.4813 20.4886 32.0895 21.1262 31.5724C21.7638 31.0552 22.2736 30.4241 22.6228 29.7197C22.972 29.0153 23.1529 28.2532 23.1538 27.4824V26.3789H31.7692C32.0957 26.3789 32.4087 26.2627 32.6395 26.0557C32.8703 25.8488 33 25.5681 33 25.2755V21.9652C32.9999 21.6726 32.8702 21.392 32.6394 21.1851ZM20.6923 27.4824C20.6923 28.3603 20.3033 29.2023 19.6109 29.8231C18.9184 30.4439 17.9793 30.7927 17 30.7927C16.0207 30.7927 15.0816 30.4439 14.3891 29.8231C13.6967 29.2023 13.3077 28.3603 13.3077 27.4824V26.3789H20.6923V27.4824ZM30.5385 24.1721H3.46154V22.422L6.79323 19.435C7.02406 19.2281 7.15378 18.9475 7.15385 18.6549V14.2412C7.15385 11.9 8.19121 9.6547 10.0377 7.99923C11.8842 6.34376 14.3886 5.41373 17 5.41373C19.6114 5.41373 22.1158 6.34376 23.9623 7.99923C25.8088 9.6547 26.8462 11.9 26.8462 14.2412V18.6549C26.8462 18.9475 26.9759 19.2281 27.2068 19.435L30.5385 22.422V24.1721Z" fill="#C89B3C" stroke="#C89B3C" stroke-width="2"/>
</svg>
