<svg width="32" height="32" viewBox="0 0 32 32" fill="none" xmlns="http://www.w3.org/2000/svg">
<path d="M14.4353 29.3346C13.8353 29.3346 13.3188 29.1346 12.8859 28.7346C12.453 28.3346 12.1917 27.8457 12.1019 27.268L11.8019 25.068C11.513 24.9569 11.241 24.8235 10.9859 24.668C10.7308 24.5124 10.4806 24.3457 10.2353 24.168L8.16859 25.0346C7.61304 25.2791 7.05748 25.3013 6.50193 25.1013C5.94637 24.9013 5.51304 24.5457 5.20193 24.0346L3.63526 21.3013C3.32415 20.7902 3.23526 20.2457 3.36859 19.668C3.50193 19.0902 3.80193 18.6124 4.26859 18.2346L6.03526 16.9013C6.01304 16.7457 6.00193 16.5955 6.00193 16.4506V15.5506C6.00193 15.4066 6.01304 15.2569 6.03526 15.1013L4.26859 13.768C3.80193 13.3902 3.50193 12.9124 3.36859 12.3346C3.23526 11.7569 3.32415 11.2124 3.63526 10.7013L5.20193 7.96797C5.51304 7.45686 5.94637 7.1013 6.50193 6.9013C7.05748 6.7013 7.61304 6.72352 8.16859 6.96797L10.2353 7.83464C10.4797 7.65686 10.7353 7.49019 11.0019 7.33464C11.2686 7.17908 11.5353 7.04575 11.8019 6.93463L12.1019 4.73464C12.1908 4.15686 12.4521 3.66797 12.8859 3.26797C13.3197 2.86797 13.8361 2.66797 14.4353 2.66797H17.5686C18.1686 2.66797 18.6855 2.86797 19.1193 3.26797C19.553 3.66797 19.8139 4.15686 19.9019 4.73464L20.2019 6.93463C20.4908 7.04575 20.7633 7.17908 21.0193 7.33464C21.2753 7.49019 21.525 7.65686 21.7686 7.83464L23.8353 6.96797C24.3908 6.72352 24.9464 6.7013 25.5019 6.9013C26.0575 7.1013 26.4908 7.45686 26.8019 7.96797L28.3686 10.7013C28.6797 11.2124 28.7686 11.7569 28.6353 12.3346C28.5019 12.9124 28.2019 13.3902 27.7353 13.768L25.9686 15.1013C25.9908 15.2569 26.0019 15.4071 26.0019 15.552V16.4506C26.0019 16.5955 25.9797 16.7457 25.9353 16.9013L27.7019 18.2346C28.1686 18.6124 28.4686 19.0902 28.6019 19.668C28.7353 20.2457 28.6464 20.7902 28.3353 21.3013L26.7353 24.0346C26.4241 24.5457 25.9908 24.9013 25.4353 25.1013C24.8797 25.3013 24.3241 25.2791 23.7686 25.0346L21.7686 24.168C21.5241 24.3457 21.2686 24.5124 21.0019 24.668C20.7353 24.8235 20.4686 24.9569 20.2019 25.068L19.9019 27.268C19.813 27.8457 19.5521 28.3346 19.1193 28.7346C18.6864 29.1346 18.1695 29.3346 17.5686 29.3346H14.4353ZM14.6686 26.668H17.3019L17.7686 23.1346C18.4575 22.9569 19.0966 22.696 19.6859 22.352C20.2753 22.008 20.8139 21.5911 21.3019 21.1013L24.6019 22.468L25.9019 20.2013L23.0353 18.0346C23.1464 17.7235 23.2241 17.396 23.2686 17.052C23.313 16.708 23.3353 16.3577 23.3353 16.0013C23.3353 15.6449 23.313 15.2951 23.2686 14.952C23.2241 14.6089 23.1464 14.2809 23.0353 13.968L25.9019 11.8013L24.6019 9.53464L21.3019 10.9346C20.813 10.4235 20.2744 9.99597 19.6859 9.65197C19.0975 9.30797 18.4584 9.04664 17.7686 8.86797L17.3353 5.33464H14.7019L14.2353 8.86797C13.5464 9.04575 12.9077 9.30708 12.3193 9.65197C11.7308 9.99686 11.1917 10.4133 10.7019 10.9013L7.40193 9.53464L6.10193 11.8013L8.96859 13.9346C8.85748 14.268 8.7797 14.6013 8.73526 14.9346C8.69082 15.268 8.66859 15.6235 8.66859 16.0013C8.66859 16.3569 8.69082 16.7013 8.73526 17.0346C8.7797 17.368 8.85748 17.7013 8.96859 18.0346L6.10193 20.2013L7.40193 22.468L10.7019 21.068C11.1908 21.5791 11.7299 22.0071 12.3193 22.352C12.9086 22.6969 13.5473 22.9577 14.2353 23.1346L14.6686 26.668ZM16.0686 20.668C17.3575 20.668 18.4575 20.2124 19.3686 19.3013C20.2797 18.3902 20.7353 17.2902 20.7353 16.0013C20.7353 14.7124 20.2797 13.6124 19.3686 12.7013C18.4575 11.7902 17.3575 11.3346 16.0686 11.3346C14.7575 11.3346 13.6521 11.7902 12.7526 12.7013C11.853 13.6124 11.4028 14.7124 11.4019 16.0013C11.401 17.2902 11.8513 18.3902 12.7526 19.3013C13.6539 20.2124 14.7593 20.668 16.0686 20.668Z" fill="#BFB7B7"/>
</svg>
